<svg xmlns="http://www.w3.org/2000/svg" width="634.511" height="180" viewBox="0 0 634.511 180">
  <g id="Group_1" data-name="Group 1" transform="translate(-146.489 -111)">
    <path id="Path_5" data-name="Path 5" d="M13.079,0S5.121,0,4.4-6.1c-1.052-9.05,0-32.41,0-32.41h8.674Zm43.4,0H47.722L31.851-24.2a34.99,34.99,0,0,1-1.934-3.2H29.81q.215,2.041.215,6.23V0H21.833V-38.511h9.346L46.46-15.066q1.047,1.584,1.934,3.142H48.5a41.175,41.175,0,0,1-.215-5.291v-21.3h8.191ZM97.3,0H86.34L75.115-16.731a16.036,16.036,0,0,1-1.021-2.122H73.96V0H65.286V-38.511H73.96V-20.3h.134q.322-.752,1.074-2.148L85.8-38.511H96.143L82.715-20.142Z" transform="translate(185 260) rotate(-90)" fill="#fff"/>
    <text id="TATTOOS" transform="translate(189 257)" fill="#d66e53" font-size="135" font-family="SegoeUI-Bold, Segoe UI" font-weight="700"><tspan x="0" y="0">TATTOOS</tspan></text>
  </g>
</svg>
