<svg xmlns="http://www.w3.org/2000/svg" xmlns:xlink="http://www.w3.org/1999/xlink" width="101.04" height="29.092" viewBox="0 0 101.04 29.092">
  <defs>
    <linearGradient id="linear-gradient" x1="0.5" y1="0.359" x2="0.5" y2="1.241" gradientUnits="objectBoundingBox">
      <stop offset="0" stop-color="#d36954"/>
      <stop offset="1" stop-color="#afafaf"/>
    </linearGradient>
  </defs>
  <g id="Group_5" data-name="Group 5" transform="translate(0 0)">
    <g id="Group_3" data-name="Group 3" transform="translate(0 0)">
      <g id="Group_17" data-name="Group 17" transform="translate(0)">
        <g id="Group_16" data-name="Group 16" transform="translate(0 27.041) rotate(-90)">
          <path id="NK" d="M4.6.116a1.775,1.775,0,0,0-.541.542,3.12,3.12,0,0,0-.35.738,4.9,4.9,0,0,0-.19.825,5.789,5.789,0,0,0-.061.817q0,.275.023.586t.076.636a6.463,6.463,0,0,0,.137.636,3.485,3.485,0,0,0,.206.571,2.457,2.457,0,0,0-.327.94,7.289,7.289,0,0,0-.084,1.1A6.222,6.222,0,0,0,3.73,9.265a3.961,3.961,0,0,0,1.02,1.627q-.822-.1-1.439-.137t-1.119-.036q-.685,0-1.188.043t-1,.116a2.449,2.449,0,0,0,.594-.5,3.5,3.5,0,0,0,.472-.687,3.9,3.9,0,0,0,.312-.8,3.13,3.13,0,0,0,.114-.825,5.687,5.687,0,0,0-.183-1.439A3.335,3.335,0,0,0,1.043,6C.931,5.773.731,5.468.731,5.468a9.669,9.669,0,0,0,.563-1.374,5.967,5.967,0,0,0,.137-1.287q0-.405-.046-.868a1.359,1.359,0,0,1-.807-.73A3.756,3.756,0,0,1,.3.1a7.936,7.936,0,0,0,.936.188,6.285,6.285,0,0,0,.83.058A9.777,9.777,0,0,0,3.365.268Q3.959.188,4.6.116Zm8.755,8.809q-.076-1.432-.114-2.748t-.061-2.329q-.023-1.013-.03-1.62t-.008-.622A1.352,1.352,0,0,0,12.181.391q.152.014.3.014h.3A11.142,11.142,0,0,0,14.031.34Q14.6.275,15.074.2t.86-.137A4.391,4.391,0,0,1,16.657,0a1.391,1.391,0,0,1,.35.043A5.206,5.206,0,0,0,15.6,1.4,2.861,2.861,0,0,0,15.1,3.038a5.174,5.174,0,0,0,.746,2.43,11.07,11.07,0,0,0-.571,1.808,8.7,8.7,0,0,0-.221,1.938q0,.419.038.962a8.138,8.138,0,0,0,.145,1.063,6.869,6.869,0,0,0,.815.723,3.739,3.739,0,0,0,.647.391,2.272,2.272,0,0,0,.541.174q.251.043.495.072l-.4-.955q.518.275,1.035.521a10.183,10.183,0,0,0,1.066.434,7.81,7.81,0,0,0,1.15.3A7.248,7.248,0,0,0,21.88,13q.457,0,.952-.029t1.043-.1a15.2,15.2,0,0,1-2.52.73,11.971,11.971,0,0,1-2.231.224,8.108,8.108,0,0,1-2.474-.362,8.979,8.979,0,0,1-2.1-.976,10.229,10.229,0,0,1-1.766-1.418,15.6,15.6,0,0,1-1.462-1.692,18.429,18.429,0,0,1-1.188-1.8Q9.608,6.668,9.2,5.844V7.319q0,.9.061,1.5a5.53,5.53,0,0,0,.2,1.056,3.284,3.284,0,0,0,.35.788,5.4,5.4,0,0,0,.518.687q-.335-.087-.586-.174a4.279,4.279,0,0,1-.487-.2,3.824,3.824,0,0,1-.487-.289q-.251-.174-.586-.434a4.055,4.055,0,0,1-1.1,1.2,6.238,6.238,0,0,1-1.842.868,6.907,6.907,0,0,0,.853-.947,7.189,7.189,0,0,0,.693-1.128,6.932,6.932,0,0,0,.472-1.237A4.832,4.832,0,0,0,7.43,7.724a4.277,4.277,0,0,0-.16-1.172,3.587,3.587,0,0,0-.525-1.085,5.174,5.174,0,0,0,.746-2.43A2.861,2.861,0,0,0,7,1.4,5.206,5.206,0,0,0,5.588.043,1.281,1.281,0,0,1,5.938,0a4.239,4.239,0,0,1,.693.065Q7.019.13,7.484.2t1,.137A9.765,9.765,0,0,0,9.653.405h.3q.145,0,.3-.014A1.327,1.327,0,0,0,9.3,1.461q.274.651.662,1.5t.868,1.794q.48.94,1.043,1.9t1.172,1.83Zm13.688,1.316a3.951,3.951,0,0,0-.974.825,3.76,3.76,0,0,0-.548,1.013,2.235,2.235,0,0,0-.6-1.056,4.158,4.158,0,0,0-1.134-.781.8.8,0,0,0,.206-.34,2.944,2.944,0,0,0,.107-.593q.038-.383.053-.976t.046-1.49a2.547,2.547,0,0,1-.4-.3q-.327-.268-.723-.6L21.073,7.131q.061,1.041.167,1.989a14.86,14.86,0,0,0,.32,1.83,3.558,3.558,0,0,0-.708-.26,2.663,2.663,0,0,0-.6-.072,2.991,2.991,0,0,0-.51.043q-.251.043-.518.094t-.556.094a4.329,4.329,0,0,1-.639.043H17.86a.9.9,0,0,1-.167-.014,2.327,2.327,0,0,0,.586-.5,3.435,3.435,0,0,0,.457-.687,3.862,3.862,0,0,0,.3-.8,3.34,3.34,0,0,0,.107-.825,5.687,5.687,0,0,0-.183-1.439,2.877,2.877,0,0,0-.579-1.164,5.745,5.745,0,0,0,.586-1.374,5.151,5.151,0,0,0,.16-1.287q0-.2-.008-.514a5.193,5.193,0,0,0-.038-.542,1.633,1.633,0,0,1-.837-.5,2.219,2.219,0,0,1-.4-1.193l.464.13q.206.058.419.1A4.088,4.088,0,0,0,19.2.354q.259.022.624.022h.51q.19,0,.373-.014t.411-.051l.609-.094a4.221,4.221,0,0,0-.4.839A5.152,5.152,0,0,0,21.1,2.069q-.076.593-.1,1.439t-.038,2.1A8.973,8.973,0,0,0,22,5q.518-.354.929-.687t.67-.564q.259-.231.289-.26a5.456,5.456,0,0,1,.046-.615,7.051,7.051,0,0,0,.046-.832q0-.217-.023-.463a3.126,3.126,0,0,0-.084-.485,2.346,2.346,0,0,0-.167-.456,1.127,1.127,0,0,0-.274-.362,1.958,1.958,0,0,0,.4.137q.221.051.426.08t.365.036q.16.007.221.007a1.05,1.05,0,0,0,.426-.087l.411-.181q.213-.094.472-.181A1.92,1.92,0,0,1,26.767,0h.167a2.491,2.491,0,0,0-.4.528,3.034,3.034,0,0,0-.266.629,4.421,4.421,0,0,0-.145.673,4.943,4.943,0,0,0-.046.658,4.611,4.611,0,0,0,.084.89,4.04,4.04,0,0,0,.221.759q-.076.029-.244.1t-.4.188q-.228.116-.487.26t-.533.289a3.5,3.5,0,0,0,.411.333q.228.159.48.311l.495.3q.244.145.457.275a1.809,1.809,0,0,0-.114.55q-.038.391-.038.9,0,.376.03.759a5.634,5.634,0,0,0,.107.738,4.1,4.1,0,0,0,.19.644A1.27,1.27,0,0,0,27.041,10.241Z" transform="translate(0)" fill="#333"/>
        </g>
        <path id="SCRIBE" d="M7.153-35.292a5.843,5.843,0,0,0-.566,1.563,8.219,8.219,0,0,0-.172,1.686,10.433,10.433,0,0,0,.1,1.427q.1.714.271,1.427.591-.172,1.243-.3t1.452-.2q.8-.074,1.809-.123t2.313-.1q-.074.984-.148,2.264t-.074,2.707q0,1.353.111,2.719a15.744,15.744,0,0,0,.431,2.621,7.73,7.73,0,0,0-2.461.394,4.976,4.976,0,0,0-1.919,1.107q-.517-.32-1.169-.652a9.3,9.3,0,0,0-1.563-.6,18.582,18.582,0,0,0-2.128-.48,23.342,23.342,0,0,0-2.867-.283,5.988,5.988,0,0,0,.9-1.39,3.653,3.653,0,0,0,.332-1.538q0-.271-.025-.517a3.165,3.165,0,0,0-.1-.517,2.52,2.52,0,0,1,.96.283q.615.283,1.452.726t1.882,1.021q1.046.578,2.276,1.169a8.169,8.169,0,0,0,.357-1.661,16.765,16.765,0,0,0,.135-2.153,11.858,11.858,0,0,0-.123-1.772,2.541,2.541,0,0,0-.394-1.156q-.664.049-1.476.148t-1.673.246q-.861.148-1.722.32t-1.649.369q.148-1.033.271-2.215a23.508,23.508,0,0,0,.123-2.436,13.288,13.288,0,0,0-.271-2.707A5.725,5.725,0,0,0,2.01-36.227q.246.025.689.1a6.724,6.724,0,0,0,1.083.074,5.292,5.292,0,0,0,2.387-.492A4.1,4.1,0,0,0,7.842-38.22a9.143,9.143,0,0,0,.9.517,9.424,9.424,0,0,0,1.156.492,9.146,9.146,0,0,0,1.341.357,7.908,7.908,0,0,0,1.476.135,5.286,5.286,0,0,0,.96-.086q.468-.086.91-.209a6.47,6.47,0,0,1-1.329,2.19,2.5,2.5,0,0,1-1.845.886,4.8,4.8,0,0,1-.9-.111q-.554-.111-1.156-.3t-1.193-.431A6.384,6.384,0,0,1,7.153-35.292Zm9.4,16.265a1.828,1.828,0,0,0,.652-.837,8.717,8.717,0,0,0,.492-1.4A11.545,11.545,0,0,0,18-22.9a13.643,13.643,0,0,0,.1-1.562,9.348,9.348,0,0,0-.234-2.116,3.787,3.787,0,0,0-.652-1.526,3.04,3.04,0,0,0,.652-1.046,7.984,7.984,0,0,0,.406-1.4,11.759,11.759,0,0,0,.2-1.538q.049-.787.049-1.476,0-.566-.025-.984t-.049-.64a3.153,3.153,0,0,1-1.169-.812,4.185,4.185,0,0,1-.9-1.329q1.575.172,2.99.234t2.67.062q2.682,0,4.331-.172t2.608-.172q.2,0,.344.012a2.4,2.4,0,0,1,.271.037,4.992,4.992,0,0,0-.308,1.107q-.16.812-.308,1.772t-.258,1.87q-.111.91-.16,1.378l-.172.074a3.985,3.985,0,0,1-1.243-1.415,7.086,7.086,0,0,1-.578-1.907,1.771,1.771,0,0,0-.861-.344,9.5,9.5,0,0,0-1.3-.074q-.64,0-1.23.025t-.935.025q-.123.714-.209,1.649t-.148,1.993q-.062,1.058-.1,2.2T21.744-26.7q0,1.55.037,2.94t.135,2.424l4.158.418a7.138,7.138,0,0,1,1.218-2.707,29.012,29.012,0,0,1,1.882-2.288l.148.049q-.074.566-.1,1.12t-.025,1.07a19.7,19.7,0,0,0,.123,2.313,8.391,8.391,0,0,0,.3,1.55q-.418.049-.824.135a4.879,4.879,0,0,0-.874.283,6.4,6.4,0,0,0-1,.541,11.9,11.9,0,0,0-1.169.886,30.351,30.351,0,0,0-4.085-.923,24.386,24.386,0,0,0-3.642-.308,4.149,4.149,0,0,0-1.452.246Zm30.29-.96A5.38,5.38,0,0,0,45.231-18.2a12.418,12.418,0,0,0-.923,2.079,7.657,7.657,0,0,0-.357-1.058,6.671,6.671,0,0,0-.578-1.095,6.086,6.086,0,0,0-.8-.984,3.827,3.827,0,0,0-1-.726,1.378,1.378,0,0,0,.332-.578,5.244,5.244,0,0,0,.172-1.009q.062-.652.086-1.661t.074-2.534q-.1-.049-.652-.468T40.4-27.172L38.71-26.163q-.824.492-1.513.91.1,1.845.283,3.482a25.437,25.437,0,0,0,.5,2.99,5.568,5.568,0,0,0-1.144-.443,4.1,4.1,0,0,0-.972-.123,4.6,4.6,0,0,0-.824.074q-.406.074-.837.16t-.9.16a6.652,6.652,0,0,1-1.033.074H32a1.383,1.383,0,0,1-.271-.025,4.015,4.015,0,0,0,.96-.849,5.975,5.975,0,0,0,.763-1.169,6.854,6.854,0,0,0,.5-1.353,5.587,5.587,0,0,0,.185-1.4,10.156,10.156,0,0,0-.3-2.448,5,5,0,0,0-.935-1.981,9.275,9.275,0,0,0,.935-2.424,10.8,10.8,0,0,0,.246-2.276q0-.664-.074-1.452a2.5,2.5,0,0,1-1.587-.775,2.9,2.9,0,0,1-.554-1.956q1.033.221,1.7.308a10.517,10.517,0,0,0,1.353.086q.394,0,.861-.037a5.262,5.262,0,0,0,1-.185,6.486,6.486,0,0,0,1.144-.455,7.77,7.77,0,0,0,1.3-.849,5.03,5.03,0,0,0,1.083.566,17.817,17.817,0,0,0,1.895.664,22.031,22.031,0,0,0,2.3.541,12.886,12.886,0,0,0,2.3.221q.344,0,.664-.025t.664-.074a3.466,3.466,0,0,1-1.058,1.169,6.974,6.974,0,0,1-1.747.972,3.52,3.52,0,0,0-.074.738q0,.394.037.837t.1.886a7.975,7.975,0,0,0,.16.837,3.923,3.923,0,0,0,.221.664,6.141,6.141,0,0,0-.849.381q-.6.308-1.439.8.566.517,1.23,1.083a10.472,10.472,0,0,0,1.353.984,3.216,3.216,0,0,0-.185.935q-.062.664-.062,1.526,0,.64.049,1.292a10.057,10.057,0,0,0,.172,1.255,7.254,7.254,0,0,0,.308,1.095A2.175,2.175,0,0,0,46.843-19.987Zm-5.02-14.272q-1.329-.2-2.461-.344a20.694,20.694,0,0,1-2.239-.418q-.049.615-.049,1.329v5.315q.787-.468,1.624-.947t1.55-.886q.714-.406,1.181-.689a5.419,5.419,0,0,0,.517-.332Zm14.715-2.953a2.949,2.949,0,0,0-.874.923,5.435,5.435,0,0,0-.566,1.255,8.7,8.7,0,0,0-.308,1.4,10.355,10.355,0,0,0-.1,1.39q0,.468.037,1t.123,1.083q.086.554.221,1.083a6.135,6.135,0,0,0,.332.972,4.326,4.326,0,0,0-.529,1.6,13.035,13.035,0,0,0-.135,1.87,11.1,11.1,0,0,0,.394,2.99,6.8,6.8,0,0,0,1.649,2.768q-1.329-.172-2.325-.234t-1.809-.062q-1.107,0-1.919.074t-1.624.2a4.014,4.014,0,0,0,.96-.849,5.975,5.975,0,0,0,.763-1.169,6.854,6.854,0,0,0,.5-1.353,5.587,5.587,0,0,0,.185-1.4,10.156,10.156,0,0,0-.3-2.448,5,5,0,0,0-.935-1.981,8.852,8.852,0,0,0,.91-2.338,10.663,10.663,0,0,0,.221-2.19q0-.689-.074-1.476a2.244,2.244,0,0,1-1.3-1.243,6.664,6.664,0,0,1-.443-1.882,12.26,12.26,0,0,0,1.513.32,9.659,9.659,0,0,0,1.341.1,15.022,15.022,0,0,0,2.092-.135Q55.5-37.088,56.537-37.211Zm7.874,2.633q-.049,1.009-.049,1.993v2.891q0,.455.049.947a14.107,14.107,0,0,0,2.645-.861,8.935,8.935,0,0,0,2.1-1.329q-.025-.3-.037-.824t-.012-.75q0-.271.025-.517t.074-.591a15.232,15.232,0,0,1-2.621-.246A9.038,9.038,0,0,1,64.411-34.578Zm8.858,6.791a8.5,8.5,0,0,0-.615,3.3q0,.566.062,1.193a10.581,10.581,0,0,0,.2,1.243,10.383,10.383,0,0,0,.332,1.181,5.216,5.216,0,0,0,.468,1.009q-.689.123-1.6.308a16.268,16.268,0,0,0-1.907.517,11.956,11.956,0,0,0-1.981.874,7.947,7.947,0,0,0-1.8,1.353,9.533,9.533,0,0,0-1.71-1.193,12.525,12.525,0,0,0-1.919-.849,17.307,17.307,0,0,0-2.03-.566,18.345,18.345,0,0,0-2.018-.32l-.049-.1a2.1,2.1,0,0,0,.984-.652,4.544,4.544,0,0,0,.7-1.095,5.8,5.8,0,0,0,.418-1.292,6.48,6.48,0,0,0,.135-1.267q0-.394-.049-.886A9.578,9.578,0,0,0,60.745-26q-.1-.48-.209-.886a3.627,3.627,0,0,0-.234-.652,5.4,5.4,0,0,0,.578-1.649,9.953,9.953,0,0,0,.16-1.772,10.673,10.673,0,0,0-.123-1.649,10.246,10.246,0,0,0-.32-1.427,2.953,2.953,0,0,1-1.39-.886,3.332,3.332,0,0,1-.652-1.87q.787.123,1.538.221a11.438,11.438,0,0,0,1.489.1,6.854,6.854,0,0,0,2.079-.308,6.451,6.451,0,0,0,2.005-1.12,3.981,3.981,0,0,0,.874.566,12.445,12.445,0,0,0,1.526.664,16.19,16.19,0,0,0,1.87.554,8.256,8.256,0,0,0,1.882.234q.344,0,.664-.025t.664-.074q-.074.221-.16.529a4.621,4.621,0,0,1-.221.615,4.576,4.576,0,0,1-.3.566,1.06,1.06,0,0,1-.381.381q-.025.221-.037.455t-.012.48a10.527,10.527,0,0,0,.1,1.415,9.252,9.252,0,0,0,.344,1.513,12.394,12.394,0,0,0-1.612.837,12.852,12.852,0,0,1-2.055.984q.861.172,1.673.271a13.689,13.689,0,0,0,1.649.1A7.142,7.142,0,0,0,73.2-27.91Zm-3.986,2.239-1.415-.431q-.6-.185-1.156-.332t-1.12-.258q-.566-.111-1.28-.234-.074.664-.111,1.427t-.037,1.4q0,.738.037,1.329a13.159,13.159,0,0,0,.16,1.329q.246.074.591.209t.689.283q.344.148.664.32t.541.32a9.534,9.534,0,0,1,1.255-.8,15.119,15.119,0,0,1,1.476-.652q-.123-.763-.185-1.821T69.284-25.548Zm6.447,6.521a1.828,1.828,0,0,0,.652-.837,8.718,8.718,0,0,0,.492-1.4,11.548,11.548,0,0,0,.308-1.636,13.645,13.645,0,0,0,.1-1.562,9.349,9.349,0,0,0-.234-2.116,3.787,3.787,0,0,0-.652-1.526,3.04,3.04,0,0,0,.652-1.046,7.984,7.984,0,0,0,.406-1.4,11.759,11.759,0,0,0,.2-1.538q.049-.787.049-1.476,0-.566-.025-.984t-.049-.64a3.153,3.153,0,0,1-1.169-.812,4.185,4.185,0,0,1-.9-1.329q1.575.172,2.99.234t2.67.062q2.682,0,4.331-.172t2.608-.172q.2,0,.344.012a2.4,2.4,0,0,1,.271.037,4.245,4.245,0,0,0-.308.984q-.16.714-.308,1.563T87.9-33.139q-.111.8-.16,1.193l-.172.074a3.4,3.4,0,0,1-1.243-1.107,4.826,4.826,0,0,1-.578-1.476,1.771,1.771,0,0,0-.861-.344,9.5,9.5,0,0,0-1.3-.074q-.64,0-1.23.025t-.935.025a18.382,18.382,0,0,0-.3,2.338q-.1,1.378-.148,2.928a6.552,6.552,0,0,0,.7.062q.357.012.554.012a1.623,1.623,0,0,0,1.021-.406,5.483,5.483,0,0,0,.972-1.046q.123.3.246.677t.283.763a6.624,6.624,0,0,0,.357.726,1.443,1.443,0,0,0,.468.517,3,3,0,0,0-.431.566,7.806,7.806,0,0,0-.394.738q-.185.394-.344.787t-.283.714q-.148-.271-.344-.591a5.4,5.4,0,0,0-.418-.591,2.5,2.5,0,0,0-.48-.455.935.935,0,0,0-.554-.185q-.221,0-.64.025a5.075,5.075,0,0,0-.763.1v.443q0,1.55.037,2.94t.135,2.424l4.158.418a7.137,7.137,0,0,1,1.218-2.707,29.012,29.012,0,0,1,1.882-2.288l.148.049q-.074.566-.1,1.12t-.025,1.07a19.7,19.7,0,0,0,.123,2.313,8.392,8.392,0,0,0,.3,1.55q-.418.049-.824.135a4.879,4.879,0,0,0-.874.283,6.4,6.4,0,0,0-1,.541,11.9,11.9,0,0,0-1.169.886,30.351,30.351,0,0,0-4.085-.923,24.386,24.386,0,0,0-3.642-.308,4.149,4.149,0,0,0-1.452.246Z" transform="translate(12.244 38.463)" fill="url(#linear-gradient)"/>
        <text id="TATTOOS" transform="translate(13.034 27.092)" fill="#333" font-size="6" font-family="NewRocker-Regular, NewRocker" letter-spacing="1.65em"><tspan x="0" y="0">TATTOOS</tspan></text>
      </g>
    </g>
  </g>
</svg>
