<svg xmlns="http://www.w3.org/2000/svg" xmlns:xlink="http://www.w3.org/1999/xlink" width="142" height="94" viewBox="0 0 142 94">
  <defs>
    <linearGradient id="linear-gradient" x1="0.5" y1="1.08" x2="0.51" y2="-0.317" gradientUnits="objectBoundingBox">
      <stop offset="0" stop-color="#3a0101"/>
      <stop offset="1" stop-color="#1d0000"/>
    </linearGradient>
    <linearGradient id="linear-gradient-2" x1="0.5" y1="0.359" x2="0.5" y2="1.241" gradientUnits="objectBoundingBox">
      <stop offset="0" stop-color="#d36954"/>
      <stop offset="1" stop-color="#afafaf"/>
    </linearGradient>
  </defs>
  <g id="Group_41" data-name="Group 41" transform="translate(452 -856)">
    <rect id="Rectangle_35" data-name="Rectangle 35" width="142" height="94" rx="4" transform="translate(-452 856)" fill="url(#linear-gradient)"/>
    <g id="Group_40" data-name="Group 40" transform="translate(120.388 -37)">
      <g id="Group_38" data-name="Group 38" transform="translate(-552.388 874)">
        <g id="Group_37" data-name="Group 37" transform="translate(-3.37 45.445)">
          <g id="Group_5" data-name="Group 5" transform="translate(10.867 0)">
            <g id="Group_3" data-name="Group 3" transform="translate(0)">
              <g id="Group_17" data-name="Group 17" transform="translate(0)">
                <g id="Group_16" data-name="Group 16" transform="translate(0 23.809) rotate(-90)">
                  <path id="NK" d="M4.049.1a1.527,1.527,0,0,0-.476.455,2.561,2.561,0,0,0-.308.618,3.937,3.937,0,0,0-.168.691,4.623,4.623,0,0,0-.054.685q0,.23.02.491t.067.533a5.192,5.192,0,0,0,.121.533,2.831,2.831,0,0,0,.181.479,2,2,0,0,0-.288.788,5.822,5.822,0,0,0-.074.921,4.981,4.981,0,0,0,.214,1.473,3.3,3.3,0,0,0,.9,1.364q-.724-.085-1.267-.115t-.985-.03q-.6,0-1.046.036T0,9.117A2.135,2.135,0,0,0,.523,8.7a2.934,2.934,0,0,0,.416-.576,3.181,3.181,0,0,0,.275-.667,2.506,2.506,0,0,0,.1-.691,4.551,4.551,0,0,0-.161-1.206A2.722,2.722,0,0,0,.919,5.03a5.183,5.183,0,0,0-.275-.447,7.893,7.893,0,0,0,.5-1.152A4.77,4.77,0,0,0,1.26,2.352a7.077,7.077,0,0,0-.04-.727,1.177,1.177,0,0,1-.711-.612A3.025,3.025,0,0,1,.268.085a7.3,7.3,0,0,0,.824.158,5.808,5.808,0,0,0,.731.048A9.037,9.037,0,0,0,2.963.224Q3.486.158,4.049.1ZM11.757,7.48q-.067-1.2-.1-2.3T11.6,3.225q-.02-.849-.027-1.358t-.007-.521A1.145,1.145,0,0,0,10.725.327q.134.012.261.012h.261A10.3,10.3,0,0,0,12.353.285q.5-.055.918-.115t.757-.115A4.056,4.056,0,0,1,14.666,0a1.283,1.283,0,0,1,.308.036,4.491,4.491,0,0,0-1.24,1.134A2.317,2.317,0,0,0,13.3,2.546a4.186,4.186,0,0,0,.657,2.037,8.959,8.959,0,0,0-.5,1.515,6.959,6.959,0,0,0-.194,1.625q0,.352.034.806a6.512,6.512,0,0,0,.127.891,5.966,5.966,0,0,0,.717.606,3.33,3.33,0,0,0,.57.327,2.073,2.073,0,0,0,.476.145q.221.036.436.061l-.349-.8q.456.23.912.436a9.23,9.23,0,0,0,.938.364,7.159,7.159,0,0,0,1.012.249,6.7,6.7,0,0,0,1.133.091q.4,0,.838-.024t.918-.085A13.906,13.906,0,0,1,18.8,11.4a11.055,11.055,0,0,1-1.964.188,7.472,7.472,0,0,1-2.178-.3,8.1,8.1,0,0,1-1.85-.818,8.943,8.943,0,0,1-1.555-1.188A13.285,13.285,0,0,1,9.967,7.862,15.4,15.4,0,0,1,8.922,6.353Q8.459,5.589,8.1,4.9V6.135A12.36,12.36,0,0,0,8.151,7.4a4.437,4.437,0,0,0,.174.885,2.689,2.689,0,0,0,.308.661,4.548,4.548,0,0,0,.456.576q-.295-.073-.516-.145a3.876,3.876,0,0,1-.429-.17,3.408,3.408,0,0,1-.429-.242Q7.494,8.814,7.2,8.6A3.466,3.466,0,0,1,6.234,9.6a5.617,5.617,0,0,1-1.622.727,5.9,5.9,0,0,0,.751-.794,5.982,5.982,0,0,0,.61-.946,5.641,5.641,0,0,0,.416-1.037,3.868,3.868,0,0,0,.154-1.079A3.423,3.423,0,0,0,6.4,5.492a2.947,2.947,0,0,0-.463-.909A4.186,4.186,0,0,0,6.6,2.546,2.317,2.317,0,0,0,6.16,1.17,4.491,4.491,0,0,0,4.92.036,1.182,1.182,0,0,1,5.228,0a3.915,3.915,0,0,1,.61.055q.342.055.751.115t.885.115A9.027,9.027,0,0,0,8.5.339h.261q.127,0,.261-.012a1.131,1.131,0,0,0-.831.9q.241.546.583,1.261t.764,1.5q.422.788.918,1.594t1.032,1.534Zm12.052,1.1a3.439,3.439,0,0,0-.858.691,3.108,3.108,0,0,0-.483.849,1.853,1.853,0,0,0-.53-.885,3.671,3.671,0,0,0-1-.655.667.667,0,0,0,.181-.285,2.361,2.361,0,0,0,.094-.5q.034-.321.047-.818t.04-1.249a2.244,2.244,0,0,1-.355-.249q-.288-.224-.637-.5l-1.756.994q.054.873.147,1.667a11.912,11.912,0,0,0,.282,1.534,3.236,3.236,0,0,0-.623-.218,2.457,2.457,0,0,0-.53-.061,2.763,2.763,0,0,0-.449.036q-.221.036-.456.079t-.489.079a4,4,0,0,1-.563.036h-.147a.83.83,0,0,1-.147-.012,2.026,2.026,0,0,0,.516-.418,2.873,2.873,0,0,0,.4-.576,3.141,3.141,0,0,0,.261-.667,2.672,2.672,0,0,0,.094-.691,4.55,4.55,0,0,0-.161-1.206,2.369,2.369,0,0,0-.509-.976A4.693,4.693,0,0,0,16.7,3.431a4.121,4.121,0,0,0,.141-1.079q0-.17-.007-.43a4.147,4.147,0,0,0-.034-.455,1.453,1.453,0,0,1-.737-.418,1.8,1.8,0,0,1-.349-1l.409.109q.181.048.369.085A3.771,3.771,0,0,0,16.9.3q.228.018.55.018H17.9q.168,0,.328-.012t.362-.042L19.13.182a3.467,3.467,0,0,0-.355.7,4.141,4.141,0,0,0-.194.849,11.7,11.7,0,0,0-.087,1.206q-.02.709-.034,1.764a8,8,0,0,0,.912-.515q.456-.3.818-.576t.59-.473l.255-.218a4.358,4.358,0,0,1,.04-.515,5.629,5.629,0,0,0,.04-.7q0-.182-.02-.388A2.505,2.505,0,0,0,21.02.915a1.907,1.907,0,0,0-.147-.382.951.951,0,0,0-.241-.3,1.784,1.784,0,0,0,.355.115q.194.042.375.067t.322.03q.141.006.194.006a.965.965,0,0,0,.375-.073l.362-.152q.188-.079.416-.152A1.769,1.769,0,0,1,23.567,0h.147a2.1,2.1,0,0,0-.349.443,2.478,2.478,0,0,0-.235.527A3.552,3.552,0,0,0,23,1.534a3.947,3.947,0,0,0-.04.552,3.685,3.685,0,0,0,.074.746,3.264,3.264,0,0,0,.194.636q-.067.024-.214.085t-.349.158q-.2.1-.429.218t-.469.242a3.059,3.059,0,0,0,.362.279q.2.133.422.261l.436.249q.214.121.4.23a1.454,1.454,0,0,0-.1.461,7.463,7.463,0,0,0-.034.752q0,.315.027.636a4.51,4.51,0,0,0,.094.618,3.313,3.313,0,0,0,.168.54A1.06,1.06,0,0,0,23.809,8.584Z" fill="#fff"/>
                </g>
                <path id="SCRIBE" d="M6.288-35.642a5.314,5.314,0,0,0-.474,1.376,7.589,7.589,0,0,0-.144,1.484,9.642,9.642,0,0,0,.082,1.257q.082.628.227,1.257a10.57,10.57,0,0,1,1.041-.26q.547-.108,1.217-.173t1.516-.108q.846-.043,1.939-.087-.062.867-.124,1.993t-.062,2.383q0,1.192.093,2.394a14.506,14.506,0,0,0,.361,2.307,6.2,6.2,0,0,0-2.062.347,4.129,4.129,0,0,0-1.609.975q-.433-.282-.98-.574A7.576,7.576,0,0,0,6-21.6a14.939,14.939,0,0,0-1.784-.422,18.653,18.653,0,0,0-2.4-.249A5.31,5.31,0,0,0,2.566-23.5a3.354,3.354,0,0,0,.278-1.354q0-.238-.021-.455a2.913,2.913,0,0,0-.082-.455,2.036,2.036,0,0,1,.8.249q.516.249,1.217.639t1.578.9q.876.509,1.908,1.029a7.505,7.505,0,0,0,.3-1.462,15.5,15.5,0,0,0,.113-1.9,10.959,10.959,0,0,0-.1-1.56,2.31,2.31,0,0,0-.33-1.018q-.557.043-1.237.13t-1.4.217q-.722.13-1.444.282t-1.382.325q.124-.91.227-1.95t.1-2.145a12.27,12.27,0,0,0-.227-2.383,5.165,5.165,0,0,0-.887-2.058q.206.022.577.087a5.37,5.37,0,0,0,.907.065,4.256,4.256,0,0,0,2-.433,3.522,3.522,0,0,0,1.4-1.473,7.58,7.58,0,0,0,.753.455,7.7,7.7,0,0,0,.969.433,7.372,7.372,0,0,0,1.124.314,6.319,6.319,0,0,0,1.237.119,4.224,4.224,0,0,0,.8-.076q.392-.076.763-.184A5.755,5.755,0,0,1,11.4-35.23a2.058,2.058,0,0,1-1.547.78,3.835,3.835,0,0,1-.753-.1,9.67,9.67,0,0,1-.969-.26,10.546,10.546,0,0,1-1-.379A5.261,5.261,0,0,1,6.288-35.642Zm7.878,14.32a1.6,1.6,0,0,0,.547-.737,7.937,7.937,0,0,0,.412-1.235,10.626,10.626,0,0,0,.258-1.441,12.611,12.611,0,0,0,.082-1.376,8.629,8.629,0,0,0-.2-1.863,3.421,3.421,0,0,0-.547-1.343,2.7,2.7,0,0,0,.547-.921,7.3,7.3,0,0,0,.34-1.235,10.85,10.85,0,0,0,.165-1.354q.041-.693.041-1.3,0-.5-.021-.867t-.041-.563a2.643,2.643,0,0,1-.98-.715,3.7,3.7,0,0,1-.753-1.17q1.32.152,2.506.206t2.238.054a34.691,34.691,0,0,0,3.63-.152,21.2,21.2,0,0,1,2.186-.152q.165,0,.289.011a1.925,1.925,0,0,1,.227.032,4.566,4.566,0,0,0-.258.975q-.134.715-.258,1.56t-.217,1.647q-.093.8-.134,1.213l-.144.065a3.464,3.464,0,0,1-1.041-1.246,6.472,6.472,0,0,1-.485-1.679,1.445,1.445,0,0,0-.722-.3,7.582,7.582,0,0,0-1.093-.065q-.536,0-1.031.022t-.784.022q-.1.628-.175,1.452t-.124,1.755q-.052.932-.082,1.939t-.031,2q0,1.365.031,2.589t.113,2.134l3.485.368a6.44,6.44,0,0,1,1.021-2.383,25.323,25.323,0,0,1,1.578-2.015l.124.043q-.062.5-.082.986t-.021.942a18.212,18.212,0,0,0,.1,2.036,7.719,7.719,0,0,0,.247,1.365q-.351.043-.691.119a3.95,3.95,0,0,0-.732.249,5.288,5.288,0,0,0-.835.477,10.036,10.036,0,0,0-.98.78,24.4,24.4,0,0,0-3.423-.812,19.48,19.48,0,0,0-3.052-.271,3.328,3.328,0,0,0-1.217.217Zm25.387-.845A4.664,4.664,0,0,0,38.2-20.6a11.22,11.22,0,0,0-.773,1.831,6.981,6.981,0,0,0-.3-.932,5.981,5.981,0,0,0-.485-.964,5.317,5.317,0,0,0-.67-.867,3.219,3.219,0,0,0-.835-.639,1.229,1.229,0,0,0,.278-.509,4.829,4.829,0,0,0,.144-.888q.052-.574.072-1.462t.062-2.231a6.754,6.754,0,0,1-.547-.412q-.464-.368-1-.823l-1.413.888q-.691.433-1.268.8.082,1.625.237,3.066a23.433,23.433,0,0,0,.423,2.632,4.532,4.532,0,0,0-.959-.39,3.279,3.279,0,0,0-.815-.108,3.674,3.674,0,0,0-.691.065q-.34.065-.7.141t-.753.141a5.313,5.313,0,0,1-.866.065h-.227a1.1,1.1,0,0,1-.227-.022,3.423,3.423,0,0,0,.8-.747,5.3,5.3,0,0,0,.639-1.029,6.23,6.23,0,0,0,.423-1.192,5.153,5.153,0,0,0,.155-1.235,9.371,9.371,0,0,0-.247-2.156,4.5,4.5,0,0,0-.784-1.744,8.422,8.422,0,0,0,.784-2.134,9.971,9.971,0,0,0,.206-2q0-.585-.062-1.278a2.062,2.062,0,0,1-1.33-.682,2.646,2.646,0,0,1-.464-1.722q.866.195,1.423.271a8.4,8.4,0,0,0,1.134.076q.33,0,.722-.032a4.22,4.22,0,0,0,.835-.162,5.285,5.285,0,0,0,.959-.4,6.486,6.486,0,0,0,1.093-.747,4.153,4.153,0,0,0,.907.5,14.46,14.46,0,0,0,1.588.585,17.722,17.722,0,0,0,1.928.477,10.3,10.3,0,0,0,1.928.195q.289,0,.557-.022t.557-.065a3.008,3.008,0,0,1-.887,1.029,5.771,5.771,0,0,1-1.464.856,3.25,3.25,0,0,0-.062.65q0,.347.031.737t.082.78a7.339,7.339,0,0,0,.134.737,3.577,3.577,0,0,0,.186.585,5.025,5.025,0,0,0-.712.336q-.505.271-1.206.7.474.455,1.031.953a8.808,8.808,0,0,0,1.134.867,2.956,2.956,0,0,0-.155.823q-.052.585-.052,1.343,0,.563.041,1.137a9.277,9.277,0,0,0,.144,1.1,6.639,6.639,0,0,0,.258.964A1.933,1.933,0,0,0,39.554-22.166ZM35.346-34.732q-1.114-.173-2.062-.3a16.6,16.6,0,0,1-1.877-.368q-.041.542-.041,1.17v4.68q.66-.412,1.361-.834t1.3-.78q.6-.357.99-.607a4.526,4.526,0,0,0,.433-.292Zm12.333-2.6a2.547,2.547,0,0,0-.732.812,4.906,4.906,0,0,0-.474,1.1,7.992,7.992,0,0,0-.258,1.235,9.571,9.571,0,0,0-.082,1.224q0,.412.031.877t.1.953q.072.487.186.953a5.59,5.59,0,0,0,.278.856,3.942,3.942,0,0,0-.443,1.408,12.047,12.047,0,0,0-.113,1.647,10.241,10.241,0,0,0,.33,2.632,6.059,6.059,0,0,0,1.382,2.437q-1.114-.152-1.949-.206t-1.516-.054q-.928,0-1.609.065t-1.361.173a3.423,3.423,0,0,0,.8-.747,5.3,5.3,0,0,0,.639-1.029,6.23,6.23,0,0,0,.423-1.192,5.154,5.154,0,0,0,.155-1.235,9.371,9.371,0,0,0-.247-2.156,4.5,4.5,0,0,0-.784-1.744,8.036,8.036,0,0,0,.763-2.058A9.846,9.846,0,0,0,43.39-33.3q0-.607-.062-1.3A1.925,1.925,0,0,1,42.235-35.7a6.114,6.114,0,0,1-.371-1.657,9.846,9.846,0,0,0,1.268.282,7.713,7.713,0,0,0,1.124.087,12,12,0,0,0,1.753-.119Q46.813-37.223,47.679-37.332Zm6.6,2.318q-.041.888-.041,1.755v2.546q0,.4.041.834a11.427,11.427,0,0,0,2.217-.758,7.448,7.448,0,0,0,1.763-1.17q-.021-.26-.031-.726t-.01-.661q0-.238.021-.455t.062-.52a12.172,12.172,0,0,1-2.2-.217A7.322,7.322,0,0,1,54.279-35.014ZM61.7-29.034a7.813,7.813,0,0,0-.516,2.9q0,.5.052,1.051a9.752,9.752,0,0,0,.165,1.094,9.5,9.5,0,0,0,.278,1.04,4.7,4.7,0,0,0,.392.888q-.577.108-1.341.271a13.117,13.117,0,0,0-1.6.455,9.782,9.782,0,0,0-1.66.769,6.7,6.7,0,0,0-1.505,1.192,8,8,0,0,0-1.433-1.051,10.249,10.249,0,0,0-1.609-.747,13.964,13.964,0,0,0-1.7-.5,14.692,14.692,0,0,0-1.691-.282l-.041-.087a1.76,1.76,0,0,0,.825-.574,4.031,4.031,0,0,0,.588-.964,5.294,5.294,0,0,0,.351-1.137,5.983,5.983,0,0,0,.113-1.116q0-.347-.041-.78t-.124-.856q-.082-.422-.175-.78a3.3,3.3,0,0,0-.2-.574,4.914,4.914,0,0,0,.485-1.452,9.193,9.193,0,0,0,.134-1.56,9.862,9.862,0,0,0-.1-1.452,9.412,9.412,0,0,0-.268-1.257,2.466,2.466,0,0,1-1.165-.78,3.026,3.026,0,0,1-.547-1.647q.66.108,1.289.195a9.133,9.133,0,0,0,1.248.087,5.49,5.49,0,0,0,1.743-.271,5.337,5.337,0,0,0,1.681-.986,3.328,3.328,0,0,0,.732.5,10.178,10.178,0,0,0,1.279.585,13.08,13.08,0,0,0,1.567.487,6.6,6.6,0,0,0,1.578.206q.289,0,.557-.022t.557-.065q-.062.195-.134.466a4.205,4.205,0,0,1-.186.542,4.105,4.105,0,0,1-.247.5.912.912,0,0,1-.32.336q-.021.195-.031.4t-.01.422a9.728,9.728,0,0,0,.082,1.246,8.5,8.5,0,0,0,.289,1.332,10.213,10.213,0,0,0-1.351.737,10.555,10.555,0,0,1-1.722.867q.722.152,1.4.238a10.929,10.929,0,0,0,1.382.087,5.7,5.7,0,0,0,.887-.065Zm-3.341,1.971-1.186-.379q-.505-.162-.969-.292t-.938-.227q-.474-.1-1.072-.206-.062.585-.093,1.257t-.031,1.235q0,.65.031,1.17t.134,1.17q.206.065.495.184t.577.249q.289.13.557.282t.454.282a7.949,7.949,0,0,1,1.052-.7,12.373,12.373,0,0,1,1.237-.574q-.1-.672-.155-1.6T58.362-27.063Zm5.4,5.741a1.6,1.6,0,0,0,.547-.737,7.938,7.938,0,0,0,.412-1.235,10.628,10.628,0,0,0,.258-1.441,12.613,12.613,0,0,0,.082-1.376,8.629,8.629,0,0,0-.2-1.863,3.421,3.421,0,0,0-.547-1.343,2.7,2.7,0,0,0,.547-.921,7.3,7.3,0,0,0,.34-1.235,10.85,10.85,0,0,0,.165-1.354q.041-.693.041-1.3,0-.5-.021-.867t-.041-.563a2.643,2.643,0,0,1-.98-.715,3.7,3.7,0,0,1-.753-1.17q1.32.152,2.506.206t2.238.054a34.691,34.691,0,0,0,3.63-.152,21.2,21.2,0,0,1,2.186-.152q.165,0,.289.011a1.925,1.925,0,0,1,.227.032,3.874,3.874,0,0,0-.258.867q-.134.628-.258,1.376t-.217,1.452q-.093.7-.134,1.051l-.144.065a2.9,2.9,0,0,1-1.041-.975,4.377,4.377,0,0,1-.485-1.3,1.445,1.445,0,0,0-.722-.3,7.582,7.582,0,0,0-1.093-.065q-.536,0-1.031.022t-.784.022a16.963,16.963,0,0,0-.247,2.058q-.083,1.213-.124,2.578a5.233,5.233,0,0,0,.588.054q.3.011.464.011a1.324,1.324,0,0,0,.856-.357,4.742,4.742,0,0,0,.815-.921q.1.26.206.6t.237.672a5.96,5.96,0,0,0,.3.639,1.25,1.25,0,0,0,.392.455,2.63,2.63,0,0,0-.361.5,7,7,0,0,0-.33.65q-.155.347-.289.693t-.237.628q-.124-.238-.289-.52a4.762,4.762,0,0,0-.351-.52,2.141,2.141,0,0,0-.4-.4.759.759,0,0,0-.464-.162q-.186,0-.536.022a4.06,4.06,0,0,0-.639.087v.39q0,1.365.031,2.589t.113,2.134l3.485.368a6.44,6.44,0,0,1,1.021-2.383,25.323,25.323,0,0,1,1.578-2.015l.124.043q-.062.5-.082.986t-.021.942a18.212,18.212,0,0,0,.1,2.036,7.721,7.721,0,0,0,.247,1.365q-.351.043-.691.119a3.95,3.95,0,0,0-.732.249,5.288,5.288,0,0,0-.835.477,10.035,10.035,0,0,0-.98.78,24.4,24.4,0,0,0-3.423-.812A19.48,19.48,0,0,0,65-21.473a3.328,3.328,0,0,0-1.217.217Z" transform="translate(9.969 38.434)" fill="url(#linear-gradient-2)"/>
                <text id="TATTOOS" transform="translate(10.706 23.704)" fill="#fff" font-size="5" font-family="NewRocker-Regular, NewRocker" letter-spacing="1.65em"><tspan x="0" y="0">TATTOOS</tspan></text>
              </g>
            </g>
          </g>
          <text id="Your_Tattoos_Destination_" data-name="Your Tattoos Destination " transform="translate(0 38.06)" fill="#fff" font-size="10" font-family="NewRocker-Regular, NewRocker"><tspan x="0" y="9">Your Tattoos Destination </tspan></text>
        </g>
      </g>
    </g>
  </g>
</svg>
